<svg xmlns="http://www.w3.org/2000/svg" xmlns:xlink="http://www.w3.org/1999/xlink" width="300" zoomAndPan="magnify" viewBox="0 0 224.87999 60" height="80" preserveAspectRatio="xMidYMid meet" version="1.0"><defs><g/><clipPath id="67ba62205c"><path d="M 191 6 L 224.761719 6 L 224.761719 48 L 191 48 Z M 191 6 " clip-rule="nonzero"/></clipPath></defs><g fill="#ffffff" fill-opacity="1"><g transform="translate(-0.453349, 47.89223)"><g><path d="M 22.390625 -5.9375 C 23.484375 -5.9375 24.5 -6.160156 25.4375 -6.609375 C 26.34375 -7.066406 27.113281 -7.578125 27.75 -8.140625 C 28.507812 -8.773438 29.191406 -9.507812 29.796875 -10.34375 L 34.265625 -5.9375 C 33.316406 -4.800781 32.203125 -3.800781 30.921875 -2.9375 C 29.828125 -2.1875 28.453125 -1.507812 26.796875 -0.90625 C 25.097656 -0.300781 23.140625 0 20.921875 0 C 17.710938 0 14.90625 -0.601562 12.5 -1.8125 C 10.082031 -2.976562 8.082031 -4.519531 6.5 -6.4375 C 4.875 -8.363281 3.671875 -10.570312 2.890625 -13.0625 C 2.097656 -15.507812 1.703125 -18.035156 1.703125 -20.640625 C 1.703125 -23.234375 2.113281 -25.773438 2.9375 -28.265625 C 3.726562 -30.753906 4.9375 -32.976562 6.5625 -34.9375 C 8.144531 -36.894531 10.140625 -38.476562 12.546875 -39.6875 C 14.921875 -40.851562 17.710938 -41.4375 20.921875 -41.4375 C 23.140625 -41.4375 25.097656 -41.132812 26.796875 -40.53125 C 28.453125 -39.894531 29.828125 -39.195312 30.921875 -38.4375 C 32.203125 -37.570312 33.316406 -36.59375 34.265625 -35.5 L 29.796875 -31.09375 C 29.191406 -31.882812 28.507812 -32.617188 27.75 -33.296875 C 27.113281 -33.828125 26.34375 -34.335938 25.4375 -34.828125 C 24.5 -35.273438 23.484375 -35.5 22.390625 -35.5 C 20.921875 -35.5 19.640625 -35.085938 18.546875 -34.265625 C 17.410156 -33.390625 16.484375 -32.253906 15.765625 -30.859375 C 15.015625 -29.472656 14.453125 -27.910156 14.078125 -26.171875 C 13.703125 -24.398438 13.515625 -22.59375 13.515625 -20.75 C 13.515625 -18.90625 13.703125 -17.09375 14.078125 -15.3125 C 14.453125 -13.539062 15.015625 -11.960938 15.765625 -10.578125 C 16.484375 -9.179688 17.410156 -8.066406 18.546875 -7.234375 C 19.640625 -6.367188 20.921875 -5.9375 22.390625 -5.9375 Z M 22.390625 -5.9375 "/></g></g></g><g fill="#ffffff" fill-opacity="1"><g transform="translate(35.49628, 47.89223)"><g><path d="M 20.640625 -42.796875 C 23.796875 -42.796875 26.5625 -42.171875 28.9375 -40.921875 C 31.28125 -39.640625 33.242188 -37.960938 34.828125 -35.890625 C 36.410156 -33.816406 37.597656 -31.460938 38.390625 -28.828125 C 39.179688 -26.191406 39.578125 -23.5 39.578125 -20.75 C 39.578125 -17.957031 39.179688 -15.242188 38.390625 -12.609375 C 37.597656 -9.972656 36.410156 -7.617188 34.828125 -5.546875 C 33.242188 -3.472656 31.28125 -1.8125 28.9375 -0.5625 C 26.5625 0.71875 23.796875 1.359375 20.640625 1.359375 C 17.472656 1.359375 14.71875 0.71875 12.375 -0.5625 C 10 -1.8125 8.019531 -3.472656 6.4375 -5.546875 C 4.851562 -7.617188 3.671875 -9.972656 2.890625 -12.609375 C 2.097656 -15.242188 1.703125 -17.957031 1.703125 -20.75 C 1.703125 -23.5 2.097656 -26.191406 2.890625 -28.828125 C 3.671875 -31.460938 4.851562 -33.816406 6.4375 -35.890625 C 8.019531 -37.960938 10 -39.640625 12.375 -40.921875 C 14.71875 -42.171875 17.472656 -42.796875 20.640625 -42.796875 Z M 20.640625 -4.96875 C 21.429688 -4.96875 22.203125 -5.269531 22.953125 -5.875 C 23.703125 -6.476562 24.378906 -7.421875 24.984375 -8.703125 C 25.585938 -9.984375 26.078125 -11.625 26.453125 -13.625 C 26.796875 -15.582031 26.96875 -17.957031 26.96875 -20.75 C 26.96875 -23.5 26.796875 -25.875 26.453125 -27.875 C 26.078125 -29.863281 25.585938 -31.5 24.984375 -32.78125 C 24.378906 -34.0625 23.703125 -35.003906 22.953125 -35.609375 C 22.203125 -36.210938 21.429688 -36.515625 20.640625 -36.515625 C 19.847656 -36.515625 19.070312 -36.210938 18.3125 -35.609375 C 17.5625 -35.003906 16.882812 -34.0625 16.28125 -32.78125 C 15.675781 -31.5 15.207031 -29.863281 14.875 -27.875 C 14.488281 -25.875 14.296875 -23.5 14.296875 -20.75 C 14.296875 -17.957031 14.488281 -15.582031 14.875 -13.625 C 15.207031 -11.625 15.675781 -9.984375 16.28125 -8.703125 C 16.882812 -7.421875 17.5625 -6.476562 18.3125 -5.875 C 19.070312 -5.269531 19.847656 -4.96875 20.640625 -4.96875 Z M 20.640625 -4.96875 "/></g></g></g><g fill="#ffffff" fill-opacity="1"><g transform="translate(76.75922, 47.89223)"><g><path d="M 19.109375 -41.4375 C 22.421875 -41.4375 25.300781 -40.773438 27.75 -39.453125 C 30.164062 -38.140625 32.164062 -36.460938 33.75 -34.421875 C 35.289062 -32.390625 36.441406 -30.148438 37.203125 -27.703125 C 37.953125 -25.253906 38.328125 -22.914062 38.328125 -20.6875 C 38.328125 -18.09375 37.894531 -15.566406 37.03125 -13.109375 C 36.125 -10.628906 34.84375 -8.425781 33.1875 -6.5 C 31.488281 -4.539062 29.453125 -2.976562 27.078125 -1.8125 C 24.703125 -0.601562 22.046875 0 19.109375 0 L 2.828125 0 L 2.828125 -41.4375 Z M 17.640625 -5.9375 C 19.109375 -5.9375 20.40625 -6.367188 21.53125 -7.234375 C 22.625 -8.066406 23.550781 -9.179688 24.3125 -10.578125 C 25.019531 -11.929688 25.566406 -13.492188 25.953125 -15.265625 C 26.328125 -17.035156 26.515625 -18.84375 26.515625 -20.6875 C 26.515625 -22.53125 26.328125 -24.34375 25.953125 -26.125 C 25.566406 -27.894531 25.019531 -29.472656 24.3125 -30.859375 C 23.550781 -32.253906 22.625 -33.390625 21.53125 -34.265625 C 20.40625 -35.085938 19.109375 -35.5 17.640625 -35.5 L 14.640625 -35.5 L 14.640625 -5.9375 Z M 17.640625 -5.9375 "/></g></g></g><g fill="#ffffff" fill-opacity="1"><g transform="translate(116.77861, 47.89223)"><g><path d="M 21.421875 -11.8125 L 13.390625 -11.8125 L 10 0 L 1.125 0 L 12.953125 -41.4375 L 24.8125 -41.4375 L 36.625 0 L 24.8125 0 Z M 19.734375 -17.75 L 17.40625 -25.890625 L 15.09375 -17.75 Z M 19.734375 -17.75 "/></g></g></g><g fill="#ffffff" fill-opacity="1"><g transform="translate(154.537019, 47.89223)"><g><path d="M 22.390625 -5.9375 C 23.484375 -5.9375 24.5 -6.160156 25.4375 -6.609375 C 26.34375 -7.066406 27.113281 -7.578125 27.75 -8.140625 C 28.507812 -8.773438 29.191406 -9.507812 29.796875 -10.34375 L 34.265625 -5.9375 C 33.316406 -4.800781 32.203125 -3.800781 30.921875 -2.9375 C 29.828125 -2.1875 28.453125 -1.507812 26.796875 -0.90625 C 25.097656 -0.300781 23.140625 0 20.921875 0 C 17.710938 0 14.90625 -0.601562 12.5 -1.8125 C 10.082031 -2.976562 8.082031 -4.519531 6.5 -6.4375 C 4.875 -8.363281 3.671875 -10.570312 2.890625 -13.0625 C 2.097656 -15.507812 1.703125 -18.035156 1.703125 -20.640625 C 1.703125 -23.234375 2.113281 -25.773438 2.9375 -28.265625 C 3.726562 -30.753906 4.9375 -32.976562 6.5625 -34.9375 C 8.144531 -36.894531 10.140625 -38.476562 12.546875 -39.6875 C 14.921875 -40.851562 17.710938 -41.4375 20.921875 -41.4375 C 23.140625 -41.4375 25.097656 -41.132812 26.796875 -40.53125 C 28.453125 -39.894531 29.828125 -39.195312 30.921875 -38.4375 C 32.203125 -37.570312 33.316406 -36.59375 34.265625 -35.5 L 29.796875 -31.09375 C 29.191406 -31.882812 28.507812 -32.617188 27.75 -33.296875 C 27.113281 -33.828125 26.34375 -34.335938 25.4375 -34.828125 C 24.5 -35.273438 23.484375 -35.5 22.390625 -35.5 C 20.921875 -35.5 19.640625 -35.085938 18.546875 -34.265625 C 17.410156 -33.390625 16.484375 -32.253906 15.765625 -30.859375 C 15.015625 -29.472656 14.453125 -27.910156 14.078125 -26.171875 C 13.703125 -24.398438 13.515625 -22.59375 13.515625 -20.75 C 13.515625 -18.90625 13.703125 -17.09375 14.078125 -15.3125 C 14.453125 -13.539062 15.015625 -11.960938 15.765625 -10.578125 C 16.484375 -9.179688 17.410156 -8.066406 18.546875 -7.234375 C 19.640625 -6.367188 20.921875 -5.9375 22.390625 -5.9375 Z M 22.390625 -5.9375 "/></g></g></g><g clip-path="url(#67ba62205c)"><g fill="#ffffff" fill-opacity="1"><g transform="translate(190.486647, 47.89223)"><g><path d="M 23.34375 -32.5625 L 23.34375 0 L 11.46875 0 L 11.46875 -32.5625 L 1.125 -32.5625 L 2.59375 -41.4375 L 32.21875 -41.4375 L 33.6875 -32.5625 Z M 23.34375 -32.5625 "/></g></g></g></g></svg>