<svg xmlns="http://www.w3.org/2000/svg" xmlns:xlink="http://www.w3.org/1999/xlink" width="500" zoomAndPan="magnify" viewBox="0 0 375 187.499995" height="250" preserveAspectRatio="xMidYMid meet" version="1.0"><defs><g/><clipPath id="f8580b27e2"><path d="M 0.5 0 L 374.5 0 L 374.5 187 L 0.5 187 Z M 0.5 0 " clip-rule="nonzero"/></clipPath></defs><g clip-path="url(#f8580b27e2)"><path fill="#ffffff" d="M 0.5 0 L 374.5 0 L 374.5 187 L 0.5 187 Z M 0.5 0 " fill-opacity="1" fill-rule="nonzero"/><path fill="#ffffff" d="M 0.5 0 L 374.5 0 L 374.5 187 L 0.5 187 Z M 0.5 0 " fill-opacity="1" fill-rule="nonzero"/></g><g fill="#000100" fill-opacity="1"><g transform="translate(28.17487, 108.583049)"><g><path d="M 31.59375 -8.375 C 33.132812 -8.375 34.570312 -8.691406 35.90625 -9.328125 C 37.175781 -9.972656 38.265625 -10.691406 39.171875 -11.484375 C 40.234375 -12.390625 41.191406 -13.425781 42.046875 -14.59375 L 48.34375 -8.375 C 47.019531 -6.78125 45.453125 -5.375 43.640625 -4.15625 C 42.097656 -3.082031 40.15625 -2.125 37.8125 -1.28125 C 35.414062 -0.425781 32.648438 0 29.515625 0 C 24.992188 0 21.03125 -0.847656 17.625 -2.546875 C 14.226562 -4.203125 11.410156 -6.382812 9.171875 -9.09375 C 6.890625 -11.800781 5.1875 -14.910156 4.0625 -18.421875 C 2.945312 -21.878906 2.390625 -25.445312 2.390625 -29.125 C 2.390625 -32.789062 2.976562 -36.378906 4.15625 -39.890625 C 5.269531 -43.398438 6.96875 -46.539062 9.25 -49.3125 C 11.488281 -52.070312 14.3125 -54.300781 17.71875 -56 C 21.0625 -57.65625 24.992188 -58.484375 29.515625 -58.484375 C 32.648438 -58.484375 35.414062 -58.054688 37.8125 -57.203125 C 40.15625 -56.296875 42.097656 -55.3125 43.640625 -54.25 C 45.453125 -53.03125 47.019531 -51.648438 48.34375 -50.109375 L 42.046875 -43.875 C 41.191406 -45 40.234375 -46.035156 39.171875 -46.984375 C 38.265625 -47.734375 37.175781 -48.453125 35.90625 -49.140625 C 34.570312 -49.785156 33.132812 -50.109375 31.59375 -50.109375 C 29.519531 -50.109375 27.710938 -49.519531 26.171875 -48.34375 C 24.578125 -47.125 23.273438 -45.53125 22.265625 -43.5625 C 21.191406 -41.59375 20.390625 -39.382812 19.859375 -36.9375 C 19.328125 -34.4375 19.0625 -31.882812 19.0625 -29.28125 C 19.0625 -26.675781 19.328125 -24.125 19.859375 -21.625 C 20.390625 -19.125 21.191406 -16.890625 22.265625 -14.921875 C 23.273438 -12.953125 24.578125 -11.382812 26.171875 -10.21875 C 27.710938 -8.988281 29.519531 -8.375 31.59375 -8.375 Z M 31.59375 -8.375 "/></g></g></g><g fill="#000100" fill-opacity="1"><g transform="translate(78.914626, 108.583049)"><g><path d="M 29.125 -60.390625 C 33.59375 -60.390625 37.5 -59.515625 40.84375 -57.765625 C 44.144531 -55.953125 46.910156 -53.582031 49.140625 -50.65625 C 51.378906 -47.726562 53.054688 -44.40625 54.171875 -40.6875 C 55.285156 -36.96875 55.84375 -33.164062 55.84375 -29.28125 C 55.84375 -25.34375 55.285156 -21.515625 54.171875 -17.796875 C 53.054688 -14.066406 51.378906 -10.738281 49.140625 -7.8125 C 46.910156 -4.894531 44.144531 -2.554688 40.84375 -0.796875 C 37.5 1.015625 33.59375 1.921875 29.125 1.921875 C 24.65625 1.921875 20.769531 1.015625 17.46875 -0.796875 C 14.125 -2.554688 11.332031 -4.894531 9.09375 -7.8125 C 6.863281 -10.738281 5.1875 -14.066406 4.0625 -17.796875 C 2.945312 -21.515625 2.390625 -25.34375 2.390625 -29.28125 C 2.390625 -33.164062 2.945312 -36.96875 4.0625 -40.6875 C 5.1875 -44.40625 6.863281 -47.726562 9.09375 -50.65625 C 11.332031 -53.582031 14.125 -55.953125 17.46875 -57.765625 C 20.769531 -59.515625 24.65625 -60.390625 29.125 -60.390625 Z M 29.125 -7.015625 C 30.238281 -7.015625 31.328125 -7.441406 32.390625 -8.296875 C 33.453125 -9.148438 34.410156 -10.476562 35.265625 -12.28125 C 36.117188 -14.09375 36.8125 -16.410156 37.34375 -19.234375 C 37.820312 -21.992188 38.0625 -25.34375 38.0625 -29.28125 C 38.0625 -33.164062 37.820312 -36.515625 37.34375 -39.328125 C 36.8125 -42.148438 36.117188 -44.460938 35.265625 -46.265625 C 34.410156 -48.078125 33.453125 -49.410156 32.390625 -50.265625 C 31.328125 -51.109375 30.238281 -51.53125 29.125 -51.53125 C 28 -51.53125 26.90625 -51.109375 25.84375 -50.265625 C 24.78125 -49.410156 23.828125 -48.078125 22.984375 -46.265625 C 22.128906 -44.460938 21.460938 -42.148438 20.984375 -39.328125 C 20.453125 -36.515625 20.1875 -33.164062 20.1875 -29.28125 C 20.1875 -25.34375 20.453125 -21.992188 20.984375 -19.234375 C 21.460938 -16.410156 22.128906 -14.09375 22.984375 -12.28125 C 23.828125 -10.476562 24.78125 -9.148438 25.84375 -8.296875 C 26.90625 -7.441406 28 -7.015625 29.125 -7.015625 Z M 29.125 -7.015625 "/></g></g></g><g fill="#000100" fill-opacity="1"><g transform="translate(137.153655, 108.583049)"><g><path d="M 26.96875 -58.484375 C 31.644531 -58.484375 35.710938 -57.550781 39.171875 -55.6875 C 42.578125 -53.820312 45.394531 -51.457031 47.625 -48.59375 C 49.8125 -45.71875 51.4375 -42.550781 52.5 -39.09375 C 53.5625 -35.632812 54.09375 -32.335938 54.09375 -29.203125 C 54.09375 -25.523438 53.476562 -21.960938 52.25 -18.515625 C 50.976562 -15.003906 49.171875 -11.890625 46.828125 -9.171875 C 44.429688 -6.410156 41.5625 -4.203125 38.21875 -2.546875 C 34.863281 -0.847656 31.113281 0 26.96875 0 L 3.984375 0 L 3.984375 -58.484375 Z M 24.890625 -8.375 C 26.960938 -8.375 28.796875 -8.988281 30.390625 -10.21875 C 31.929688 -11.382812 33.238281 -12.953125 34.3125 -14.921875 C 35.320312 -16.835938 36.09375 -19.046875 36.625 -21.546875 C 37.15625 -24.046875 37.421875 -26.597656 37.421875 -29.203125 C 37.421875 -31.804688 37.15625 -34.359375 36.625 -36.859375 C 36.09375 -39.359375 35.320312 -41.59375 34.3125 -43.5625 C 33.238281 -45.53125 31.929688 -47.125 30.390625 -48.34375 C 28.796875 -49.519531 26.960938 -50.109375 24.890625 -50.109375 L 20.65625 -50.109375 L 20.65625 -8.375 Z M 24.890625 -8.375 "/></g></g></g><g fill="#000100" fill-opacity="1"><g transform="translate(193.637526, 108.583049)"><g><path d="M 30.234375 -16.671875 L 18.90625 -16.671875 L 14.125 0 L 1.59375 0 L 18.265625 -58.484375 L 35.03125 -58.484375 L 51.703125 0 L 35.03125 0 Z M 27.84375 -25.046875 L 24.578125 -36.546875 L 21.296875 -25.046875 Z M 27.84375 -25.046875 "/></g></g></g><g fill="#000100" fill-opacity="1"><g transform="translate(246.930207, 108.583049)"><g><path d="M 31.59375 -8.375 C 33.132812 -8.375 34.570312 -8.691406 35.90625 -9.328125 C 37.175781 -9.972656 38.265625 -10.691406 39.171875 -11.484375 C 40.234375 -12.390625 41.191406 -13.425781 42.046875 -14.59375 L 48.34375 -8.375 C 47.019531 -6.78125 45.453125 -5.375 43.640625 -4.15625 C 42.097656 -3.082031 40.15625 -2.125 37.8125 -1.28125 C 35.414062 -0.425781 32.648438 0 29.515625 0 C 24.992188 0 21.03125 -0.847656 17.625 -2.546875 C 14.226562 -4.203125 11.410156 -6.382812 9.171875 -9.09375 C 6.890625 -11.800781 5.1875 -14.910156 4.0625 -18.421875 C 2.945312 -21.878906 2.390625 -25.445312 2.390625 -29.125 C 2.390625 -32.789062 2.976562 -36.378906 4.15625 -39.890625 C 5.269531 -43.398438 6.96875 -46.539062 9.25 -49.3125 C 11.488281 -52.070312 14.3125 -54.300781 17.71875 -56 C 21.0625 -57.65625 24.992188 -58.484375 29.515625 -58.484375 C 32.648438 -58.484375 35.414062 -58.054688 37.8125 -57.203125 C 40.15625 -56.296875 42.097656 -55.3125 43.640625 -54.25 C 45.453125 -53.03125 47.019531 -51.648438 48.34375 -50.109375 L 42.046875 -43.875 C 41.191406 -45 40.234375 -46.035156 39.171875 -46.984375 C 38.265625 -47.734375 37.175781 -48.453125 35.90625 -49.140625 C 34.570312 -49.785156 33.132812 -50.109375 31.59375 -50.109375 C 29.519531 -50.109375 27.710938 -49.519531 26.171875 -48.34375 C 24.578125 -47.125 23.273438 -45.53125 22.265625 -43.5625 C 21.191406 -41.59375 20.390625 -39.382812 19.859375 -36.9375 C 19.328125 -34.4375 19.0625 -31.882812 19.0625 -29.28125 C 19.0625 -26.675781 19.328125 -24.125 19.859375 -21.625 C 20.390625 -19.125 21.191406 -16.890625 22.265625 -14.921875 C 23.273438 -12.953125 24.578125 -11.382812 26.171875 -10.21875 C 27.710938 -8.988281 29.519531 -8.375 31.59375 -8.375 Z M 31.59375 -8.375 "/></g></g></g><g fill="#000100" fill-opacity="1"><g transform="translate(297.669974, 108.583049)"><g><path d="M 32.953125 -45.953125 L 32.953125 0 L 16.203125 0 L 16.203125 -45.953125 L 1.59375 -45.953125 L 3.671875 -58.484375 L 45.46875 -58.484375 L 47.546875 -45.953125 Z M 32.953125 -45.953125 "/></g></g></g></svg>